name analog
datacolumns 19
datarows 46
range 0.0 0.0225
endheader
time	ground_force_vx	ground_force_vy	ground_force_vz	ground_force_px	ground_force_py	ground_force_pz	l_ground_force_vx	l_ground_force_vy	l_ground_force_vz	l_ground_force_px	l_ground_force_py	l_ground_force_pz	ground_torque_x	ground_torque_y	ground_torque_z	l_ground_torque_x	l_ground_torque_y	l_ground_torque_z
0.0	-0.0	-0.0	-0.0	2.9967739582061768	36.76042938232422	-470.4867858886719	-0.0995050594210624	-42.9868049621582	-431.5513916015625	-0.0	-0.0	-0.0	-0.0	-0.0	-0.0	112272.375	5106.92333984375	-4184.93408203125
0.0005	-0.0	-0.0	-0.0	3.3515024185180664	37.103275299072266	-470.9412841796875	0.2145070880651474	-42.77339553833008	-434.3381958007813	-0.0	-0.0	-0.0	-0.0	-0.0	-0.0	112120.921875	4900.76904296875	-4023.98876953125
0.001	-0.0	-0.0	-0.0	3.4916815757751465	36.72172546386719	-469.6799621582031	-0.1774215698242187	-43.18930816650391	-432.007080078125	-0.0	-0.0	-0.0	-0.0	-0.0	-0.0	112359.5	5094.294921875	-4138.69970703125
0.0015	-0.0	-0.0	-0.0	3.542963981628418	36.82357406616211	-469.830078125	0.1646187603473663	-43.01266479492188	-433.8478698730469	-0.0	-0.0	-0.0	-0.0	-0.0	-0.0	112558.5625	5113.71630859375	-4040.83642578125
0.002	-0.0	-0.0	-0.0	3.198255777359009	36.36520385742188	-469.0730285644531	0.2788553833961487	-42.836368560791016	-435.5423278808594	-0.0	-0.0	-0.0	-0.0	-0.0	-0.0	112719.5625	5336.28857421875	-3951.7451171875
0.0025	-0.0	-0.0	-0.0	3.530603647232056	36.56865310668945	-468.0632629394531	0.1901024430990219	-43.466896057128906	-436.5892333984375	-0.0	-0.0	-0.0	-0.0	-0.0	-0.0	112924.9375	5082.67578125	-4036.733642578125
0.003	-0.0	-0.0	-0.0	3.2742183208465576	36.70920944213867	-468.2669982910156	0.4309501945972442	-43.18930816650391	-436.0903930664063	-0.0	-0.0	-0.0	-0.0	-0.0	-0.0	113069.6328125	4962.89111328125	-3989.859619140625
0.0035	-0.0	-0.0	-0.0	3.516601085662842	36.47924423217773	-467.9556274414063	0.1398020684719085	-43.18930816650391	-436.6899719238281	-0.0	-0.0	-0.0	-0.0	-0.0	-0.0	112843.359375	4972.224609375	-3909.439453125
0.004	-0.0	-0.0	-0.0	3.798787832260132	36.15986633300781	-466.95306396484375	0.2536346316337585	-43.302513122558594	-436.739501953125	-0.0	-0.0	-0.0	-0.0	-0.0	-0.0	113303.296875	4811.5166015625	-3973.26220703125
0.0045000000000000005	-0.0	-0.0	-0.0	3.3007888793945312	36.12247848510742	-466.1486511230469	0.0638748556375503	-43.21403503417969	-437.885009765625	-0.0	-0.0	-0.0	-0.0	-0.0	-0.0	113072.421875	4659.1611328125	-4054.142578125
0.005	-0.0	-0.0	-0.0	3.057717084884644	36.40201187133789	-465.5397644042969	0.204347550868988	-43.493385314941406	-436.2362976074219	-0.0	-0.0	-0.0	-0.0	-0.0	-0.0	113227.96875	4834.05419921875	-4058.34716796875
0.0055	-0.0	-0.0	-0.0	3.56842041015625	36.0733642578125	-465.9897155761719	0.3178977966308594	-43.89837265014648	-436.9825744628906	-0.0	-0.0	-0.0	-0.0	-0.0	-0.0	113089.5	4732.25341796875	-4054.306884765625
0.006	-0.0	-0.0	-0.0	3.211578369140625	36.21123504638672	-466.1331481933594	0.1009461283683776	-43.65527725219727	-437.1378173828125	-0.0	-0.0	-0.0	-0.0	-0.0	-0.0	113171.546875	4635.9931640625	-4070.89892578125
0.006500000000000001	-0.0	-0.0	-0.0	3.081618309020996	36.28818130493164	-465.203369140625	0.1774215698242187	-43.77113723754883	-437.6309814453125	-0.0	-0.0	-0.0	-0.0	-0.0	-0.0	113160.15625	4872.89794921875	-4011.56005859375
0.007	-0.0	-0.0	-0.0	3.211578369140625	36.7266731262207	-464.3643798828125	0.3669592142105102	-43.642974853515625	-437.8838195800781	-0.0	-0.0	-0.0	-0.0	-0.0	-0.0	112868.3515625	4801.18212890625	-3973.651123046875
0.0075	-0.0	-0.0	-0.0	2.7655258178710938	36.69779968261719	-464.5738525390625	-0.1653690934181213	-43.594913482666016	-437.0903930664063	-0.0	-0.0	-0.0	-0.0	-0.0	-0.0	113189.3359375	5184.36376953125	-3986.172119140625
0.008	-0.0	-0.0	-0.0	2.753594398498535	36.2283935546875	-464.4090881347656	-0.0526789277791976	-43.46622848510742	-435.8357543945313	-0.0	-0.0	-0.0	-0.0	-0.0	-0.0	113067.328125	5094.84912109375	-3995.641845703125
0.0085	-0.0	-0.0	-0.0	3.5328664779663086	36.19878387451172	-464.5254821777344	0.1125724837183952	-43.518836975097656	-436.7417297363281	-0.0	-0.0	-0.0	-0.0	-0.0	-0.0	112806.9921875	4929.80419921875	-3930.61669921875
0.009000000000000001	-0.0	-0.0	-0.0	3.009577989578247	36.48967361450195	-464.9248046875	-0.2598868012428283	-43.583641052246094	-437.2312622070313	-0.0	-0.0	-0.0	-0.0	-0.0	-0.0	113162.9921875	4847.5537109375	-3938.815673828125
0.0095	-0.0	-0.0	-0.0	2.885209083557129	36.28781509399414	-464.61767578125	0.2838769853115082	-43.54259490966797	-435.880859375	-0.0	-0.0	-0.0	-0.0	-0.0	-0.0	112746.3046875	4923.681640625	-3940.35498046875
0.01	-0.0	-0.0	-0.0	3.319995403289795	36.86089324951172	-464.7847900390625	0.366591066122055	-43.49580764770508	-436.1366271972656	-0.0	-0.0	-0.0	-0.0	-0.0	-0.0	112602.828125	4920.826171875	-3916.418212890625
0.0105	-0.0	-0.0	-0.0	3.351331949234009	36.72172546386719	-465.9364013671875	0.2193080782890319	-43.09424591064453	-435.3460083007813	-0.0	-0.0	-0.0	-0.0	-0.0	-0.0	112611.1171875	4733.6630859375	-3944.364013671875
0.011	-0.0	-0.0	-0.0	2.820093870162964	36.57491302490234	-464.980224609375	0.3432143926620483	-43.22404098510742	-433.7835998535156	-0.0	-0.0	-0.0	-0.0	-0.0	-0.0	112542.4921875	4899.28173828125	-3967.717529296875
0.0115	-0.0	-0.0	-0.0	2.866219997406006	36.5205192565918	-466.4143371582031	0.4204233586788177	-43.41972732543945	-433.828369140625	-0.0	-0.0	-0.0	-0.0	-0.0	-0.0	112395.546875	4708.79296875	-3892.851318359375
0.012	-0.0	-0.0	-0.0	2.975949764251709	36.32180404663086	-467.3384399414063	0.3548431396484375	-43.40837860107422	-435.1199645996094	-0.0	-0.0	-0.0	-0.0	-0.0	-0.0	112395.9609375	4834.53564453125	-3914.86669921875
0.0125	-0.0	-0.0	-0.0	2.877459049224853	36.4656867980957	-466.7239685058594	0.2432451397180557	-42.61662673950195	-431.6414794921875	-0.0	-0.0	-0.0	-0.0	-0.0	-0.0	112070.9609375	4791.8740234375	-3914.824951171875
0.013000000000000001	-0.0	-0.0	-0.0	2.9879581928253174	36.39907455444336	-468.580322265625	0.4525878429412842	-42.847354888916016	-434.2550048828125	-0.0	-0.0	-0.0	-0.0	-0.0	-0.0	111961.921875	4783.18115234375	-3863.080322265625
0.0135	-0.0	-0.0	-0.0	3.0331573486328125	36.765869140625	-467.9188537597656	0.3548431396484375	-42.85860443115234	-432.8587341308594	-0.0	-0.0	-0.0	-0.0	-0.0	-0.0	111729.6484375	4702.86328125	-3970.446044921875
0.014	-0.0	-0.0	-0.0	2.709847927093506	37.16738128662109	-470.12591552734375	0.343582272529602	-42.65937805175781	-432.1610412597656	-0.0	-0.0	-0.0	-0.0	-0.0	-0.0	111487.640625	4942.29345703125	-3940.84619140625
0.0145	-0.0	-0.0	-0.0	2.4085562229156494	36.5322151184082	-468.8902282714844	0.0560945942997932	-42.68171691894531	-430.6405029296875	-0.0	-0.0	-0.0	-0.0	-0.0	-0.0	111372.3671875	5035.05322265625	-3948.615478515625
0.015	-0.0	-0.0	-0.0	2.887908697128296	36.877891540527344	-468.5384826660156	0.3771261572837829	-42.53777694702149	-431.02685546875	-0.0	-0.0	-0.0	-0.0	-0.0	-0.0	111619.8671875	4849.5908203125	-3900.251220703125
0.0155	-0.0	-0.0	-0.0	3.288534879684448	37.00010299682617	-470.7938232421875	0.1996635198593139	-42.41646957397461	-430.7658996582031	-0.0	-0.0	-0.0	-0.0	-0.0	-0.0	111497.6171875	5006.92236328125	-3952.24462890625
0.016	-0.0	-0.0	-0.0	3.277285575866699	36.33078384399414	-469.3327941894531	0.2330249696969986	-42.63740158081055	-429.5867919921875	-0.0	-0.0	-0.0	-0.0	-0.0	-0.0	111286.046875	4695.61767578125	-3955.981201171875
0.0165	-0.0	-0.0	-0.0	2.919962167739868	36.76517105102539	-471.0989990234375	0.1434909105300903	-42.50455093383789	-430.5902099609375	-0.0	-0.0	-0.0	-0.0	-0.0	-0.0	111428.359375	4748.83251953125	-4004.3486328125
0.017	-0.0	-0.0	-0.0	3.2574732303619385	36.845890045166016	-471.1849060058594	0.1214533746242523	-42.30609130859375	-430.5469055175781	-0.0	-0.0	-0.0	-0.0	-0.0	-0.0	111557.609375	4886.19775390625	-3882.050048828125
0.0175	-0.0	-0.0	-0.0	3.603794574737549	36.87847137451172	-473.9248352050781	0.3439902067184448	-42.50434494018555	-430.4185485839844	-0.0	-0.0	-0.0	-0.0	-0.0	-0.0	111418.984375	4905.5869140625	-3955.86865234375
0.018000000000000002	-0.0	-0.0	-0.0	3.2436394691467285	37.010475158691406	-474.673828125	0.4004613161087036	-42.3382682800293	-430.9054565429688	-0.0	-0.0	-0.0	-0.0	-0.0	-0.0	111385.859375	4908.78125	-4086.094482421875
0.0185	-0.0	-0.0	-0.0	3.3727598190307617	36.789588928222656	-477.4571228027344	0.1101734265685081	-42.54684066772461	-429.2340698242188	-0.0	-0.0	-0.0	-0.0	-0.0	-0.0	111206.1015625	4964.52392578125	-3929.969970703125
0.019	-0.0	-0.0	-0.0	3.022590398788452	36.9680061340332	-475.85888671875	0.4115926027297973	-42.71587371826172	-428.66064453125	-0.0	-0.0	-0.0	-0.0	-0.0	-0.0	111497.4453125	5090.2509765625	-3926.210205078125
0.0195	-0.0	-0.0	-0.0	3.3007888793945312	36.62210464477539	-475.193359375	-0.0251688957214355	-42.691009521484375	-429.2323913574219	-0.0	-0.0	-0.0	-0.0	-0.0	-0.0	111198.09375	4987.1552734375	-3985.8427734375
0.02	-0.0	-0.0	-0.0	2.9488844871521	36.74263000488281	-477.1461181640625	0.0992590487003326	-42.41541290283203	-429.62255859375	-0.0	-0.0	-0.0	-0.0	-0.0	-0.0	111074.65625	5001.080078125	-4067.621826171875
0.0205	-0.0	-0.0	-0.0	3.485374927520752	37.03676223754883	-477.7291870117188	0.0573053136467933	-42.58147430419922	-429.4976806640625	-0.0	-0.0	-0.0	-0.0	-0.0	-0.0	111316.4765625	5180.109375	-3978.755126953125
0.021	-0.0	-0.0	-0.0	3.153325319290161	36.83147811889648	-477.4584045410156	0.2453178167343139	-42.40476989746094	-428.2237243652344	-0.0	-0.0	-0.0	-0.0	-0.0	-0.0	111232.0859375	5022.4501953125	-4086.83349609375
0.021500000000000002	-0.0	-0.0	-0.0	2.707146406173706	37.32510757446289	-478.8713073730469	-0.0	-42.7637825012207	-429.0665588378906	-0.0	-0.0	-0.0	-0.0	-0.0	-0.0	111011.6796875	5019.63623046875	-4094.101318359375
0.022	-0.0	-0.0	-0.0	2.9057204723358154	36.84904861450195	-476.9140319824219	-0.0578538738191127	-42.89361953735352	-429.269287109375	-0.0	-0.0	-0.0	-0.0	-0.0	-0.0	110909.875	5153.32958984375	-4223.22998046875
0.0225	-0.0	-0.0	-0.0	3.160805940628052	37.17534637451172	-476.2473449707031	-0.2149146646261215	-42.523529052734375	-429.4161682128906	-0.0	-0.0	-0.0	-0.0	-0.0	-0.0	110838.609375	5113.43359375	-4045.2626953125
